<svg width="359" height="122" viewBox="0 0 359 122" fill="none" xmlns="http://www.w3.org/2000/svg">
<path d="M22.4313 54.368C21.3646 53.6853 20.1486 53.152 18.7833 52.768C17.4179 52.384 15.9246 52.192 14.3033 52.192C11.7006 52.192 9.50325 52.7253 7.71125 53.792C5.91925 54.816 5.02325 56.4587 5.02325 58.72C5.02325 60.384 5.49258 61.6853 6.43125 62.624C7.41258 63.5627 8.64992 64.3307 10.1433 64.928C11.6793 65.4827 13.2793 65.9947 14.9433 66.464C16.6499 66.9333 18.2499 67.5093 19.7433 68.192C21.2793 68.832 22.5166 69.728 23.4553 70.88C24.4366 71.9893 24.9273 73.504 24.9273 75.424C24.9273 77.3867 24.3939 79.008 23.3273 80.288C22.2606 81.568 20.8739 82.5067 19.1673 83.104C17.5033 83.7013 15.7113 84 13.7913 84C11.4873 84 9.31125 83.5947 7.26325 82.784C5.21525 81.9733 3.44458 80.8427 1.95125 79.392L2.78325 78.432C4.19125 79.7973 5.83392 80.864 7.71125 81.632C9.58858 82.3573 11.6153 82.72 13.7913 82.72C15.5406 82.72 17.1406 82.4853 18.5913 82.016C20.0419 81.504 21.2366 80.736 22.1753 79.712C23.1139 78.6453 23.6046 77.3227 23.6473 75.744C23.7326 74.0373 23.3059 72.6933 22.3673 71.712C21.4286 70.7307 20.1913 69.9413 18.6553 69.344C17.1619 68.704 15.5619 68.1493 13.8553 67.68C12.1486 67.168 10.5273 66.592 8.99125 65.952C7.45525 65.2693 6.19658 64.3733 5.21525 63.264C4.23392 62.1547 3.74325 60.6827 3.74325 58.848C3.74325 57.0133 4.21258 55.52 5.15125 54.368C6.13258 53.216 7.41258 52.3627 8.99125 51.808C10.6126 51.2107 12.3619 50.912 14.2393 50.912C15.9886 50.912 17.5886 51.1253 19.0393 51.552C20.5326 51.9787 21.8766 52.5547 23.0713 53.28L22.4313 54.368ZM41.0398 88.8C40.0158 91.2747 38.7571 93.152 37.2638 94.432C35.7704 95.7547 34.1491 96.416 32.3998 96.416C31.2478 96.416 30.1598 96.2667 29.1358 95.968C28.1544 95.712 27.2798 95.3067 26.5117 94.752L27.0877 93.664C28.5384 94.6453 30.2664 95.136 32.2718 95.136C33.8931 95.136 35.3651 94.5387 36.6878 93.344C38.0531 92.192 39.1624 90.528 40.0158 88.352L41.6798 84.128L27.9838 50.912H29.4557L42.3198 82.528L54.9918 50.912H56.5278L41.0398 88.8ZM91.1403 63.968C91.1403 60.256 90.0949 57.376 88.0043 55.328C85.9563 53.2373 83.0976 52.192 79.4283 52.192C75.0336 52.2773 71.5989 53.7067 69.1243 56.48C66.6496 59.2107 65.4123 62.9867 65.4123 67.808H64.2603C64.2603 64.3093 64.8576 61.3227 66.0523 58.848C67.2469 56.3307 68.9749 54.3893 71.2363 53.024C73.5403 51.6587 76.2709 50.9547 79.4283 50.912C82.1589 50.912 84.4843 51.4453 86.4043 52.512C88.3669 53.536 89.8603 55.0293 90.8843 56.992C91.9083 58.912 92.4202 61.2373 92.4202 63.968V84H91.1403V63.968ZM64.1963 50.912H65.4763V84H64.1963V50.912ZM128.168 56.224C126.802 54.9867 125.245 54.0053 123.496 53.28C121.746 52.5547 119.826 52.192 117.736 52.192C114.877 52.192 112.317 52.8533 110.056 54.176C107.837 55.456 106.088 57.248 104.808 59.552C103.528 61.8133 102.888 64.4373 102.888 67.424C102.888 70.4107 103.528 73.056 104.808 75.36C106.088 77.664 107.837 79.4773 110.056 80.8C112.317 82.08 114.877 82.72 117.736 82.72C119.997 82.72 122.088 82.3147 124.008 81.504C125.928 80.6507 127.549 79.456 128.872 77.92L129.704 78.816C128.253 80.4373 126.504 81.7173 124.456 82.656C122.408 83.552 120.168 84 117.736 84C114.664 84 111.912 83.296 109.48 81.888C107.09 80.4373 105.192 78.4747 103.784 76C102.376 73.4827 101.672 70.624 101.672 67.424C101.672 64.224 102.376 61.3867 103.784 58.912C105.192 56.3947 107.09 54.432 109.48 53.024C111.912 51.616 114.664 50.912 117.736 50.912C119.954 50.912 122.024 51.3173 123.944 52.128C125.864 52.896 127.549 53.9627 129 55.328L128.168 56.224Z" fill="white"/>
<path d="M191.881 50.4C189.614 47.5333 186.914 45.2667 183.781 43.6C180.648 41.9333 177.548 41.1 174.481 41.1C171.814 41.1 169.314 41.6333 166.981 42.7C164.648 43.7 162.614 45.1333 160.881 47C159.148 48.8 157.814 50.9667 156.881 53.5C155.948 55.9667 155.481 58.6667 155.481 61.6C155.481 64.5333 155.948 67.2667 156.881 69.8C157.814 72.2667 159.148 74.4333 160.881 76.3C162.614 78.1667 164.648 79.6333 166.981 80.7C169.314 81.7 171.814 82.2 174.481 82.2C177.414 82.2 180.414 81.4667 183.481 80C186.614 78.4667 189.414 76.4333 191.881 73.9L202.581 85.2C200.048 87.8667 197.181 90.2 193.981 92.2C190.781 94.1333 187.414 95.6333 183.881 96.7C180.414 97.7667 176.948 98.3 173.481 98.3C168.214 98.3 163.348 97.4 158.881 95.6C154.414 93.7333 150.514 91.1667 147.181 87.9C143.914 84.5667 141.348 80.7 139.481 76.3C137.614 71.8333 136.681 67 136.681 61.8C136.681 56.6667 137.614 51.9333 139.481 47.6C141.348 43.2 143.981 39.3667 147.381 36.1C150.781 32.8333 154.748 30.3 159.281 28.5C163.881 26.7 168.848 25.8 174.181 25.8C177.648 25.8 181.114 26.3 184.581 27.3C188.048 28.2333 191.314 29.6 194.381 31.4C197.448 33.2 200.148 35.3333 202.481 37.8L191.881 50.4Z" fill="white"/>
<path d="M224.729 49.056C228.526 49.056 231.833 49.7813 234.649 51.232C237.507 52.6827 239.726 54.7307 241.305 57.376C242.883 60.0213 243.673 63.1147 243.673 66.656C243.673 70.1973 242.883 73.312 241.305 76C239.726 78.6453 237.507 80.7147 234.649 82.208C231.833 83.6587 228.526 84.384 224.729 84.384C220.931 84.384 217.603 83.6587 214.745 82.208C211.929 80.7147 209.731 78.6453 208.153 76C206.617 73.312 205.849 70.1973 205.849 66.656C205.849 63.1147 206.617 60.0213 208.153 57.376C209.731 54.7307 211.929 52.6827 214.745 51.232C217.603 49.7813 220.931 49.056 224.729 49.056ZM224.729 58.08C223.235 58.08 221.934 58.4427 220.825 59.168C219.715 59.8933 218.841 60.9173 218.201 62.24C217.603 63.5627 217.305 65.0987 217.305 66.848C217.305 68.5973 217.603 70.1333 218.201 71.456C218.841 72.736 219.715 73.7387 220.825 74.464C221.934 75.1893 223.235 75.552 224.729 75.552C226.222 75.552 227.523 75.1893 228.633 74.464C229.785 73.7387 230.659 72.736 231.257 71.456C231.897 70.1333 232.217 68.5973 232.217 66.848C232.217 65.0987 231.897 63.5627 231.257 62.24C230.659 60.9173 229.785 59.8933 228.633 59.168C227.523 58.4427 226.222 58.08 224.729 58.08ZM259.845 68.064C259.845 70.0267 260.336 71.584 261.317 72.736C262.341 73.888 263.706 74.464 265.413 74.464C267.461 74.4213 269.04 73.6533 270.149 72.16C271.301 70.6667 271.877 68.7893 271.877 66.528H274.565C274.565 70.4107 274.01 73.696 272.901 76.384C271.792 79.0293 270.213 81.0347 268.165 82.4C266.117 83.7653 263.664 84.448 260.805 84.448C258.33 84.448 256.154 83.9147 254.277 82.848C252.442 81.7387 251.013 80.2027 249.989 78.24C248.965 76.2773 248.453 73.952 248.453 71.264V49.44H259.845V68.064ZM271.877 49.44H283.269V84H271.877V49.44ZM316.041 65.376C316.041 63.4133 315.508 61.856 314.441 60.704C313.374 59.552 311.945 58.976 310.153 58.976C308.02 59.0187 306.334 59.7867 305.097 61.28C303.902 62.7307 303.305 64.608 303.305 66.912H300.617C300.617 62.9867 301.193 59.7013 302.345 57.056C303.497 54.368 305.118 52.3413 307.209 50.976C309.342 49.6107 311.881 48.928 314.825 48.928C317.342 48.928 319.54 49.4827 321.417 50.592C323.337 51.6587 324.809 53.1947 325.833 55.2C326.857 57.1627 327.369 59.488 327.369 62.176V84H316.041V65.376ZM291.977 49.44H303.369V84H291.977V49.44ZM348.03 71.712C348.03 73.0347 348.307 73.9947 348.862 74.592C349.417 75.1893 350.185 75.4667 351.166 75.424C351.763 75.424 352.425 75.3173 353.15 75.104C353.875 74.8907 354.643 74.6133 355.454 74.272L357.63 82.144C356.393 82.912 354.942 83.5093 353.278 83.936C351.657 84.32 349.993 84.512 348.286 84.512C346.067 84.512 344.083 84.1067 342.334 83.296C340.585 82.4427 339.198 81.2053 338.174 79.584C337.193 77.92 336.702 75.8933 336.702 73.504V41.504H348.03V71.712ZM331.902 51.04H356.99V58.464H331.902V51.04Z" fill="white"/>
</svg>
